<mxfile host="app.diagrams.net" modified="2023-11-28T09:47:31.577Z" agent="Mozilla/5.0 (X11; Linux x86_64) AppleWebKit/537.36 (KHTML, like Gecko) Chrome/116.0.0.0 Safari/537.36" version="22.1.4" etag="z14m78h7lulzDep1Ucez" type="github">
  <diagram name="Page-1" id="Ks42LZnjlkr2HwFivtwP">
    <mxGraphModel>
      <root>
        <mxCell id="0" />
        <mxCell id="1" parent="0" />
      </root>
    </mxGraphModel>
  </diagram>
</mxfile>
